# Blender 4.1.1
# www.blender.org
mtllib Floor.mtl
o Floor
v -91.385696 171.713959 -542.773987
v -91.385696 171.714005 34.316090
v -91.385696 167.532959 -542.773987
v -91.385696 167.533005 34.316090
v -515.078979 171.714005 34.316090
v -91.385696 171.714005 34.316090
v -515.078979 171.713959 -542.773987
v -91.385696 171.713959 -542.773987
v -91.385696 171.714005 34.316090
v -515.078979 171.714005 34.316090
v -91.385696 167.533005 34.316090
v -515.078979 167.533005 34.316090
v -515.078979 171.714005 34.316090
v -515.078979 171.713959 -542.773987
v -515.078979 167.533005 34.316090
v -515.078979 167.532959 -542.773987
v -515.078979 167.532959 -542.773987
v -91.385696 167.532959 -542.773987
v -515.078979 167.533005 34.316090
v -91.385696 167.533005 34.316090
v -515.078979 171.713959 -542.773987
v -91.385696 171.713959 -542.773987
v -515.078979 167.532959 -542.773987
v -91.385696 167.532959 -542.773987
vn 1.0000 -0.0000 -0.0000
vn -0.0000 1.0000 -0.0000
vn -0.0000 -0.0000 1.0000
vn -1.0000 -0.0000 -0.0000
vn -0.0000 -1.0000 -0.0000
vn -0.0000 -0.0000 -1.0000
vt 48.161598 28.521799
vt -23.974701 28.521799
vt 48.161598 27.999201
vt -23.974701 27.999201
vt 28.986900 28.521799
vt 28.986900 -43.614399
vt -23.974701 -43.614399
vt 28.986900 27.999201
s 0
g Floor_Part1Mtl.001
usemtl Part1Mtl.001
f 1/1/1 2/2/1 3/3/1
f 3/3/1 2/2/1 4/4/1
f 5/5/2 6/2/2 7/6/2
f 7/6/2 6/2/2 8/7/2
f 9/5/3 10/2/3 11/8/3
f 11/8/3 10/2/3 12/4/3
f 13/1/4 14/2/4 15/3/4
f 15/3/4 14/2/4 16/4/4
f 17/5/5 18/2/5 19/6/5
f 19/6/5 18/2/5 20/7/5
f 21/5/6 22/2/6 23/8/6
f 23/8/6 22/2/6 24/4/6
