# Blender 4.1.1
# www.blender.org
mtllib WallDoor.mtl
o WallDoor
v -395.357117 95.968521 -23.917019
v -395.357117 95.968521 -14.181018
v -395.357117 23.798523 -23.917013
v -395.357117 23.798523 -14.181013
v -398.839111 95.968521 -14.181018
v -395.357117 95.968521 -14.181018
v -398.839111 95.968521 -23.917019
v -395.357117 95.968521 -23.917019
v -395.357117 95.968521 -14.181018
v -398.839111 95.968521 -14.181018
v -395.357117 23.798523 -14.181013
v -398.839111 23.798523 -14.181013
v -398.839111 95.968521 -14.181018
v -398.839111 95.968521 -23.917019
v -398.839111 23.798523 -14.181013
v -398.839111 23.798523 -23.917013
v -398.839111 23.798523 -23.917013
v -395.357117 23.798523 -23.917013
v -398.839111 23.798523 -14.181013
v -395.357117 23.798523 -14.181013
v -398.839111 95.968521 -23.917019
v -395.357117 95.968521 -23.917019
v -398.839111 23.798523 -23.917013
v -395.357117 23.798523 -23.917013
v -393.839111 93.149490 -486.984039
v -393.839111 93.149521 -20.883718
v -393.839111 80.658493 -486.984039
v -393.839111 80.658524 -20.883717
v -398.840088 93.149521 -20.883718
v -393.839111 93.149521 -20.883718
v -398.840088 93.149490 -486.984039
v -393.839111 93.149490 -486.984039
v -393.839111 93.149521 -20.883718
v -398.840088 93.149521 -20.883718
v -393.839111 80.658524 -20.883717
v -398.840088 80.658524 -20.883717
v -398.840088 93.149521 -20.883718
v -398.840088 93.149490 -486.984039
v -398.840088 80.658524 -20.883717
v -398.840088 80.658493 -486.984039
v -398.840088 80.658493 -486.984039
v -393.839111 80.658493 -486.984039
v -398.840088 80.658524 -20.883717
v -393.839111 80.658524 -20.883717
v -398.840088 93.149490 -486.984039
v -393.839111 93.149490 -486.984039
v -398.840088 80.658493 -486.984039
v -393.839111 80.658493 -486.984039
v -395.357117 95.968521 -75.480019
v -395.357117 95.968521 -65.744019
v -395.357117 23.798523 -75.480019
v -395.357117 23.798523 -65.744019
v -398.839111 95.968521 -65.744019
v -395.357117 95.968521 -65.744019
v -398.839111 95.968521 -75.480019
v -395.357117 95.968521 -75.480019
v -395.357117 95.968521 -65.744019
v -398.839111 95.968521 -65.744019
v -395.357117 23.798523 -65.744019
v -398.839111 23.798523 -65.744019
v -398.839111 95.968521 -65.744019
v -398.839111 95.968521 -75.480019
v -398.839111 23.798523 -65.744019
v -398.839111 23.798523 -75.480019
v -398.839111 23.798523 -75.480019
v -395.357117 23.798523 -75.480019
v -398.839111 23.798523 -65.744019
v -395.357117 23.798523 -65.744019
v -398.839111 95.968521 -75.480019
v -395.357117 95.968521 -75.480019
v -398.839111 23.798523 -75.480019
v -395.357117 23.798523 -75.480019
v -395.357117 95.968506 -148.334015
v -395.357117 95.968506 -138.598022
v -395.357117 23.798508 -148.334015
v -395.357117 23.798508 -138.598022
v -398.839111 95.968506 -138.598022
v -395.357117 95.968506 -138.598022
v -398.839111 95.968506 -148.334015
v -395.357117 95.968506 -148.334015
v -395.357117 95.968506 -138.598022
v -398.839111 95.968506 -138.598022
v -395.357117 23.798508 -138.598022
v -398.839111 23.798508 -138.598022
v -398.839111 95.968506 -138.598022
v -398.839111 95.968506 -148.334015
v -398.839111 23.798508 -138.598022
v -398.839111 23.798508 -148.334015
v -398.839111 23.798508 -148.334015
v -395.357117 23.798508 -148.334015
v -398.839111 23.798508 -138.598022
v -395.357117 23.798508 -138.598022
v -398.839111 95.968506 -148.334015
v -395.357117 95.968506 -148.334015
v -398.839111 23.798508 -148.334015
v -395.357117 23.798508 -148.334015
v -395.357117 95.968506 -220.986008
v -395.357117 95.968506 -210.051010
v -395.357117 23.798508 -220.986008
v -395.357117 23.798508 -210.051010
v -398.839111 95.968506 -210.051010
v -395.357117 95.968506 -210.051010
v -398.839111 95.968506 -220.986008
v -395.357117 95.968506 -220.986008
v -395.357117 95.968506 -210.051010
v -398.839111 95.968506 -210.051010
v -395.357117 23.798508 -210.051010
v -398.839111 23.798508 -210.051010
v -398.839111 95.968506 -210.051010
v -398.839111 95.968506 -220.986008
v -398.839111 23.798508 -210.051010
v -398.839111 23.798508 -220.986008
v -398.839111 23.798508 -220.986008
v -395.357117 23.798508 -220.986008
v -398.839111 23.798508 -210.051010
v -395.357117 23.798508 -210.051010
v -398.839111 95.968506 -220.986008
v -395.357117 95.968506 -220.986008
v -398.839111 23.798508 -220.986008
v -395.357117 23.798508 -220.986008
v -395.357117 95.968506 -293.862030
v -395.357117 95.968506 -284.330017
v -395.357117 23.798508 -293.862000
v -395.357117 23.798508 -284.329987
v -398.839111 95.968506 -284.330017
v -395.357117 95.968506 -284.330017
v -398.839111 95.968506 -293.862030
v -395.357117 95.968506 -293.862030
v -395.357117 95.968506 -284.330017
v -398.839111 95.968506 -284.330017
v -395.357117 23.798508 -284.329987
v -398.839111 23.798508 -284.329987
v -398.839111 95.968506 -284.330017
v -398.839111 95.968506 -293.862030
v -398.839111 23.798508 -284.329987
v -398.839111 23.798508 -293.862000
v -398.839111 23.798508 -293.862000
v -395.357117 23.798508 -293.862000
v -398.839111 23.798508 -284.329987
v -395.357117 23.798508 -284.329987
v -398.839111 95.968506 -293.862030
v -395.357117 95.968506 -293.862030
v -398.839111 23.798508 -293.862000
v -395.357117 23.798508 -293.862000
v -395.356110 95.968491 -490.225037
v -395.356110 95.968491 -479.329041
v -395.356110 23.798492 -490.225006
v -395.356110 23.798492 -479.329010
v -398.838135 95.968491 -479.329041
v -395.356110 95.968491 -479.329041
v -398.838135 95.968491 -490.225037
v -395.356110 95.968491 -490.225037
v -395.356110 95.968491 -479.329041
v -398.838135 95.968491 -479.329041
v -395.356110 23.798492 -479.329010
v -398.838135 23.798492 -479.329010
v -398.838135 95.968491 -479.329041
v -398.838135 95.968491 -490.225037
v -398.838135 23.798492 -479.329010
v -398.838135 23.798492 -490.225006
v -398.838135 23.798492 -490.225006
v -395.356110 23.798492 -490.225006
v -398.838135 23.798492 -479.329010
v -395.356110 23.798492 -479.329010
v -398.838135 95.968491 -490.225037
v -395.356110 95.968491 -490.225037
v -398.838135 23.798492 -490.225006
v -395.356110 23.798492 -490.225006
v -395.356110 95.968491 -437.438019
v -395.356110 95.968491 -427.702026
v -395.356110 23.798492 -437.437988
v -395.356110 23.798492 -427.701996
v -398.838135 95.968491 -427.702026
v -395.356110 95.968491 -427.702026
v -398.838135 95.968491 -437.438019
v -395.356110 95.968491 -437.438019
v -395.356110 95.968491 -427.702026
v -398.838135 95.968491 -427.702026
v -395.356110 23.798492 -427.701996
v -398.838135 23.798492 -427.701996
v -398.838135 95.968491 -427.702026
v -398.838135 95.968491 -437.438019
v -398.838135 23.798492 -427.701996
v -398.838135 23.798492 -437.437988
v -398.838135 23.798492 -437.437988
v -395.356110 23.798492 -437.437988
v -398.838135 23.798492 -427.701996
v -395.356110 23.798492 -427.701996
v -398.838135 95.968491 -437.438019
v -395.356110 95.968491 -437.438019
v -398.838135 23.798492 -437.437988
v -395.356110 23.798492 -437.437988
v -395.357117 95.968491 -365.539032
v -395.357117 95.968491 -357.206024
v -395.357117 23.798492 -365.539001
v -395.357117 23.798492 -357.205994
v -398.839111 95.968491 -357.206024
v -395.357117 95.968491 -357.206024
v -398.839111 95.968491 -365.539032
v -395.357117 95.968491 -365.539032
v -395.357117 95.968491 -357.206024
v -398.839111 95.968491 -357.206024
v -395.357117 23.798492 -357.205994
v -398.839111 23.798492 -357.205994
v -398.839111 95.968491 -357.206024
v -398.839111 95.968491 -365.539032
v -398.839111 23.798492 -357.205994
v -398.839111 23.798492 -365.539001
v -398.839111 23.798492 -365.539001
v -395.357117 23.798492 -365.539001
v -398.839111 23.798492 -357.205994
v -395.357117 23.798492 -357.205994
v -398.839111 95.968491 -365.539032
v -395.357117 95.968491 -365.539032
v -398.839111 23.798492 -365.539001
v -395.357117 23.798492 -365.539001
vn 1.0000 -0.0000 -0.0000
vn -0.0000 1.0000 -0.0000
vn -0.0000 -0.0000 1.0000
vn -1.0000 -0.0000 -0.0000
vn -0.0000 -1.0000 -0.0000
vn -0.0000 -0.0000 -1.0000
vt 5.005200 -2.486650
vt 3.788200 -2.486650
vt 5.005200 -11.507900
vt 3.788200 -11.507900
vt 4.223450 -2.486650
vt 4.223450 -3.703650
vt 3.788200 -3.703650
vt 4.223450 -11.507900
vt 85.334297 24.674801
vt 27.071800 24.674801
vt 85.334297 23.113501
vt 27.071800 23.113501
vt 27.696899 24.674801
vt 27.696899 -33.587601
vt 27.071800 -33.587601
vt 27.696899 23.113501
vt -1.121430 2.373700
vt -2.338430 2.373700
vt -1.121430 -6.647550
vt -2.338430 -6.647550
vt -1.903180 2.373700
vt -1.903180 1.156700
vt -2.338430 1.156700
vt -1.903180 -6.647550
vt 6.363030 -1.132780
vt 5.146030 -1.132780
vt 6.363030 -10.154000
vt 5.146030 -10.154000
vt 5.581270 -1.132780
vt 5.581270 -2.349780
vt 5.146030 -2.349780
vt 5.581270 -10.154000
vt -1.061000 -1.538870
vt -2.427930 -1.538870
vt -1.061000 -10.560100
vt -2.427930 -10.560100
vt -1.992680 -1.538870
vt -1.992680 -2.905810
vt -2.427930 -2.905810
vt -1.992680 -10.560100
vt 5.468880 -2.114510
vt 4.277260 -2.114510
vt 5.468880 -11.135800
vt 4.277260 -11.135800
vt 4.712510 -2.114510
vt 4.712510 -3.306130
vt 4.277260 -3.306130
vt 4.712510 -11.135800
vt 0.874840 -4.275230
vt -0.487191 -4.275230
vt 0.874840 -13.296500
vt -0.487191 -13.296500
vt -0.051941 -4.275230
vt -0.051941 -5.637270
vt -0.487191 -5.637270
vt -0.051941 -13.296500
vt 5.997070 -2.486650
vt 4.780070 -2.486650
vt 5.997070 -11.507900
vt 4.780070 -11.507900
vt 5.215320 -2.486650
vt 5.215320 -3.703650
vt 4.780070 -3.703650
vt 5.215320 -11.507900
vt -4.187650 3.829540
vt -5.229330 3.829540
vt -4.187650 -5.191710
vt -5.229330 -5.191710
vt -4.794080 3.829540
vt -4.794080 2.787870
vt -5.229330 2.787870
vt -4.794080 -5.191710
s 0
usemtl Part1Mtl.001
f 1/1/1 2/2/1 3/3/1
f 3/3/1 2/2/1 4/4/1
f 5/5/2 6/2/2 7/6/2
f 7/6/2 6/2/2 8/7/2
f 9/5/3 10/2/3 11/8/3
f 11/8/3 10/2/3 12/4/3
f 13/1/4 14/2/4 15/3/4
f 15/3/4 14/2/4 16/4/4
f 17/5/5 18/2/5 19/6/5
f 19/6/5 18/2/5 20/7/5
f 21/5/6 22/2/6 23/8/6
f 23/8/6 22/2/6 24/4/6
f 25/9/1 26/10/1 27/11/1
f 27/11/1 26/10/1 28/12/1
f 29/13/2 30/10/2 31/14/2
f 31/14/2 30/10/2 32/15/2
f 33/13/3 34/10/3 35/16/3
f 35/16/3 34/10/3 36/12/3
f 37/9/4 38/10/4 39/11/4
f 39/11/4 38/10/4 40/12/4
f 41/13/5 42/10/5 43/14/5
f 43/14/5 42/10/5 44/15/5
f 45/13/6 46/10/6 47/16/6
f 47/16/6 46/10/6 48/12/6
f 49/17/1 50/18/1 51/19/1
f 51/19/1 50/18/1 52/20/1
f 53/21/2 54/18/2 55/22/2
f 55/22/2 54/18/2 56/23/2
f 57/21/3 58/18/3 59/24/3
f 59/24/3 58/18/3 60/20/3
f 61/17/4 62/18/4 63/19/4
f 63/19/4 62/18/4 64/20/4
f 65/21/5 66/18/5 67/22/5
f 67/22/5 66/18/5 68/23/5
f 69/21/6 70/18/6 71/24/6
f 71/24/6 70/18/6 72/20/6
f 73/25/1 74/26/1 75/27/1
f 75/27/1 74/26/1 76/28/1
f 77/29/2 78/26/2 79/30/2
f 79/30/2 78/26/2 80/31/2
f 81/29/3 82/26/3 83/32/3
f 83/32/3 82/26/3 84/28/3
f 85/25/4 86/26/4 87/27/4
f 87/27/4 86/26/4 88/28/4
f 89/29/5 90/26/5 91/30/5
f 91/30/5 90/26/5 92/31/5
f 93/29/6 94/26/6 95/32/6
f 95/32/6 94/26/6 96/28/6
f 97/33/1 98/34/1 99/35/1
f 99/35/1 98/34/1 100/36/1
f 101/37/2 102/34/2 103/38/2
f 103/38/2 102/34/2 104/39/2
f 105/37/3 106/34/3 107/40/3
f 107/40/3 106/34/3 108/36/3
f 109/33/4 110/34/4 111/35/4
f 111/35/4 110/34/4 112/36/4
f 113/37/5 114/34/5 115/38/5
f 115/38/5 114/34/5 116/39/5
f 117/37/6 118/34/6 119/40/6
f 119/40/6 118/34/6 120/36/6
f 121/41/1 122/42/1 123/43/1
f 123/43/1 122/42/1 124/44/1
f 125/45/2 126/42/2 127/46/2
f 127/46/2 126/42/2 128/47/2
f 129/45/3 130/42/3 131/48/3
f 131/48/3 130/42/3 132/44/3
f 133/41/4 134/42/4 135/43/4
f 135/43/4 134/42/4 136/44/4
f 137/45/5 138/42/5 139/46/5
f 139/46/5 138/42/5 140/47/5
f 141/45/6 142/42/6 143/48/6
f 143/48/6 142/42/6 144/44/6
f 145/49/1 146/50/1 147/51/1
f 147/51/1 146/50/1 148/52/1
f 149/53/2 150/50/2 151/54/2
f 151/54/2 150/50/2 152/55/2
f 153/53/3 154/50/3 155/56/3
f 155/56/3 154/50/3 156/52/3
f 157/49/4 158/50/4 159/51/4
f 159/51/4 158/50/4 160/52/4
f 161/53/5 162/50/5 163/54/5
f 163/54/5 162/50/5 164/55/5
f 165/53/6 166/50/6 167/56/6
f 167/56/6 166/50/6 168/52/6
f 169/57/1 170/58/1 171/59/1
f 171/59/1 170/58/1 172/60/1
f 173/61/2 174/58/2 175/62/2
f 175/62/2 174/58/2 176/63/2
f 177/61/3 178/58/3 179/64/3
f 179/64/3 178/58/3 180/60/3
f 181/57/4 182/58/4 183/59/4
f 183/59/4 182/58/4 184/60/4
f 185/61/5 186/58/5 187/62/5
f 187/62/5 186/58/5 188/63/5
f 189/61/6 190/58/6 191/64/6
f 191/64/6 190/58/6 192/60/6
f 193/65/1 194/66/1 195/67/1
f 195/67/1 194/66/1 196/68/1
f 197/69/2 198/66/2 199/70/2
f 199/70/2 198/66/2 200/71/2
f 201/69/3 202/66/3 203/72/3
f 203/72/3 202/66/3 204/68/3
f 205/65/4 206/66/4 207/67/4
f 207/67/4 206/66/4 208/68/4
f 209/69/5 210/66/5 211/70/5
f 211/70/5 210/66/5 212/71/5
f 213/69/6 214/66/6 215/72/6
f 215/72/6 214/66/6 216/68/6
